<svg xmlns="http://www.w3.org/2000/svg" width="139.269" height="66.103"><defs><clipPath id="a"><path data-name="Rechteck 6420" fill="#fff" d="M0 0h139.269v66.103H0z"/></clipPath></defs><g data-name="Gruppe 88153" clip-path="url(#a)" fill="#fff"><path data-name="Pfad 122852" d="m19.391 25.446-4.541.865-2.163-4.111-2.163 4.109-4.541-.865L7.857 29.7l-3.532 2.955 4.469 1.153.144 4.613 3.676-2.739 3.676 2.739.144-4.613 4.466-1.153-3.532-3.028Zm-.433 6.7-3.316.865-.144 3.46-2.739-2.09-2.739 2.09-.144-3.46-3.316-.861 2.667-2.235-1.514-3.171 3.388.649 1.586-3.1 1.586 3.1 3.388-.649-1.37 3.172ZM1.658 1.658h6.2v8.578h9.515V1.658h6.2v8.578h9.443V1.658h6.2v8.578h1.658V.072h-9.445V8.65h-6.2V0h-9.514v8.578h-6.2V0H0v10.236h1.658V1.658M0 45.63a20.436 20.436 0 1 0 40.873 0V16.363H0Zm39.287-27.609v22.635L16.652 18.021Zm-37.629 0h12.615l24.942 24.942v2.667a18.959 18.959 0 0 1-9.083 16.147L1.658 33.3Zm0 17.589 26.96 26.96a18.358 18.358 0 0 1-8.218 1.875A18.828 18.828 0 0 1 1.586 45.63V35.61Z"/><path data-name="Pfad 122853" d="M61.778 19.679a5.331 5.331 0 0 0-1.658-1.442 5.432 5.432 0 0 0-2.523-.577 5.488 5.488 0 0 0-1.514.216 3.137 3.137 0 0 0-1.37.721 3.086 3.086 0 0 0-1.009 1.153 3.127 3.127 0 0 0-.36 1.658 3.436 3.436 0 0 0 .36 1.586 2.89 2.89 0 0 0 1.009 1.081 8.218 8.218 0 0 0 1.37.721c.5.216 1.081.36 1.658.577.721.216 1.442.5 2.163.721a8.463 8.463 0 0 1 1.946 1.081 5.12 5.12 0 0 1 1.37 1.656 5.222 5.222 0 0 1 .577 2.523 5.744 5.744 0 0 1-.577 2.6 4.621 4.621 0 0 1-1.514 1.8 5.788 5.788 0 0 1-2.091 1.077 9.063 9.063 0 0 1-2.379.36 7.7 7.7 0 0 1-1.8-.216 6.976 6.976 0 0 1-1.73-.577 5.358 5.358 0 0 1-1.514-.937 7.037 7.037 0 0 1-1.225-1.3l1.8-1.3a5.625 5.625 0 0 0 1.874 1.8 5.108 5.108 0 0 0 2.811.721 6.429 6.429 0 0 0 1.586-.216 5.4 5.4 0 0 0 1.442-.721 4.413 4.413 0 0 0 1.085-1.214 3.425 3.425 0 0 0 .433-1.73 3.511 3.511 0 0 0-.433-1.8 3.337 3.337 0 0 0-1.081-1.153 8.137 8.137 0 0 0-1.586-.793c-.577-.216-1.225-.433-1.874-.649s-1.3-.433-1.946-.721a9.925 9.925 0 0 1-1.73-1.009 3.914 3.914 0 0 1-1.225-1.586 5.669 5.669 0 0 1 .072-4.83 4.405 4.405 0 0 1 1.514-1.73 7.024 7.024 0 0 1 2.09-1.009 8.274 8.274 0 0 1 2.235-.288 7.733 7.733 0 0 1 3.532.721 7.068 7.068 0 0 1 2.235 1.73Z"/><path data-name="Pfad 122854" d="M74.825 36.619h-2.09V18.237h-6.777v-1.874h15.643v1.8h-6.776Z"/><path data-name="Pfad 122855" d="M83.043 36.619h-2.235l8.722-20.256h2.018l8.722 20.256h-2.307l-2.235-5.334H85.277Zm3.028-7.209h8.937l-4.469-10.741Z"/><path data-name="Pfad 122856" d="M104.092 16.363h6.7a12.15 12.15 0 0 1 3.821.649 12.37 12.37 0 0 1 3.46 1.874 8.939 8.939 0 0 1 2.451 3.172 9.616 9.616 0 0 1 .937 4.4 9.719 9.719 0 0 1-.937 4.469 10.686 10.686 0 0 1-2.451 3.172 8.993 8.993 0 0 1-3.46 1.874 11.817 11.817 0 0 1-3.821.649h-6.7Zm2.018 18.454h4.109a9.5 9.5 0 0 0 3.965-.721 8.006 8.006 0 0 0 2.811-1.874 7.9 7.9 0 0 0 1.658-2.667 9.006 9.006 0 0 0 .577-3.028 8.683 8.683 0 0 0-.577-3.028 7.9 7.9 0 0 0-1.658-2.667 8.006 8.006 0 0 0-2.811-1.874 9.732 9.732 0 0 0-3.965-.721h-4.109Z"/><path data-name="Pfad 122857" d="M132.494 36.619h-2.09V18.237h-6.777v-1.874h15.643v1.8h-6.776Z"/><path data-name="Pfad 122858" d="M61.781 49.307v16.075h-4.9V49.307h-5.7v-4.181h16.363v4.181Z"/><path data-name="Pfad 122859" d="M84.772 65.382v-8.506h-7.931v8.506h-4.9V45.126h4.9v7.641h7.929v-7.641h4.9v20.256Z"/><path data-name="Pfad 122860" d="M112.67 61.057a8.181 8.181 0 0 1-1.73 2.6 6.992 6.992 0 0 1-2.739 1.658 9.707 9.707 0 0 1-3.6.577 11.114 11.114 0 0 1-3.6-.577 8.7 8.7 0 0 1-2.739-1.658 7.137 7.137 0 0 1-1.73-2.6 8.232 8.232 0 0 1-.577-3.316V45.126h4.891v12.255a5.622 5.622 0 0 0 .216 1.586 3.658 3.658 0 0 0 .649 1.3 3.007 3.007 0 0 0 1.153.937 4.355 4.355 0 0 0 1.73.36 4.1 4.1 0 0 0 1.73-.36 2.476 2.476 0 0 0 1.153-.937 5.459 5.459 0 0 0 .649-1.3 5.622 5.622 0 0 0 .216-1.586V45.126h4.9v12.615a7 7 0 0 1-.577 3.316"/><path data-name="Pfad 122861" d="m132.421 65.382-8.146-13.264h-.072l.144 13.264h-4.757V45.126h5.551l8.149 13.192h.072l-.148-13.192h4.758v20.256Z"/></g></svg>